<mxfile host="65bd71144e" scale="1" border="10">
    <diagram id="-rriOPSDnHkLpZKLwRpb" name="Page-1">
        <mxGraphModel dx="3001" dy="2512" grid="1" gridSize="10" guides="1" tooltips="1" connect="1" arrows="1" fold="1" page="1" pageScale="1" pageWidth="850" pageHeight="1100" background="#FFFFFF" math="0" shadow="0">
            <root>
                <mxCell id="0"/>
                <mxCell id="1" parent="0"/>
                <mxCell id="415" style="edgeStyle=elbowEdgeStyle;html=1;exitX=0.5;exitY=1;exitDx=0;exitDy=0;entryX=0.5;entryY=0;entryDx=0;entryDy=0;endArrow=none;endFill=0;elbow=vertical;rounded=0;jumpStyle=arc;" parent="1" target="418" edge="1">
                    <mxGeometry relative="1" as="geometry">
                        <mxPoint x="-2068.03" y="-2170" as="sourcePoint"/>
                        <mxPoint x="-2128.01" y="-2051.64" as="targetPoint"/>
                    </mxGeometry>
                </mxCell>
                <mxCell id="416" style="edgeStyle=elbowEdgeStyle;elbow=vertical;html=1;exitX=0.5;exitY=1;exitDx=0;exitDy=0;entryX=0.5;entryY=0;entryDx=0;entryDy=0;endArrow=none;endFill=0;rounded=0;jumpStyle=arc;" parent="1" target="422" edge="1">
                    <mxGeometry relative="1" as="geometry">
                        <mxPoint x="-2068.03" y="-2170" as="sourcePoint"/>
                    </mxGeometry>
                </mxCell>
                <mxCell id="418" value="GUEST" style="whiteSpace=wrap;html=1;" parent="1" vertex="1">
                    <mxGeometry x="-2227.42" y="-2090.64" width="80" height="40" as="geometry"/>
                </mxCell>
                <mxCell id="422" value="&lt;font color=&quot;#ff0000&quot;&gt;REGISTRATO&lt;/font&gt;" style="whiteSpace=wrap;html=1;strokeColor=#FF0000;" parent="1" vertex="1">
                    <mxGeometry x="-1987.42" y="-2090.64" width="80" height="40" as="geometry"/>
                </mxCell>
                <mxCell id="423" value="" style="shape=singleArrow;whiteSpace=wrap;html=1;arrowWidth=0.4;arrowSize=0.4;rotation=-90;fillColor=#000000;" parent="1" vertex="1">
                    <mxGeometry x="-2087.72" y="-2165.08" width="38.76" height="29.17" as="geometry"/>
                </mxCell>
                <mxCell id="424" value="(e)" style="text;html=1;align=center;verticalAlign=middle;resizable=0;points=[];autosize=1;strokeColor=none;fillColor=none;" parent="1" vertex="1">
                    <mxGeometry x="-2070.0299999999997" y="-2157" width="40" height="30" as="geometry"/>
                </mxCell>
                <mxCell id="425" value="" style="endArrow=oval;html=1;fillStyle=auto;strokeWidth=1;startSize=6;endSize=6;fillColor=#000000;startArrow=none;startFill=0;endFill=0;" parent="1" source="422" edge="1">
                    <mxGeometry width="50" height="50" relative="1" as="geometry">
                        <mxPoint x="-2026.33" y="-1782.3733333333332" as="sourcePoint"/>
                        <mxPoint x="-1987.42" y="-2110" as="targetPoint"/>
                    </mxGeometry>
                </mxCell>
                <mxCell id="426" value="password" style="edgeLabel;html=1;align=center;verticalAlign=middle;resizable=0;points=[];" parent="425" vertex="1" connectable="0">
                    <mxGeometry x="0.4791" y="1" relative="1" as="geometry">
                        <mxPoint x="-34" y="-16" as="offset"/>
                    </mxGeometry>
                </mxCell>
                <mxCell id="427" value="" style="endArrow=oval;html=1;fillStyle=auto;strokeWidth=1;startSize=6;endSize=6;fillColor=#000000;startArrow=none;startFill=0;endFill=0;" parent="1" source="422" edge="1">
                    <mxGeometry width="50" height="50" relative="1" as="geometry">
                        <mxPoint x="-2011.33" y="-1789.04" as="sourcePoint"/>
                        <mxPoint x="-1891.42" y="-2033" as="targetPoint"/>
                    </mxGeometry>
                </mxCell>
                <mxCell id="428" value="indirizzo&lt;br&gt;mail" style="edgeLabel;html=1;align=center;verticalAlign=middle;resizable=0;points=[];" parent="427" vertex="1" connectable="0">
                    <mxGeometry x="0.4791" y="1" relative="1" as="geometry">
                        <mxPoint x="35" y="11" as="offset"/>
                    </mxGeometry>
                </mxCell>
                <mxCell id="429" value="" style="endArrow=oval;html=1;fillStyle=auto;strokeWidth=1;startSize=6;endSize=6;fillColor=#000000;startArrow=none;startFill=0;endFill=0;" parent="1" edge="1">
                    <mxGeometry width="50" height="50" relative="1" as="geometry">
                        <mxPoint x="-1936.3444084278767" y="-2090.64" as="sourcePoint"/>
                        <mxPoint x="-1927.42" y="-2120" as="targetPoint"/>
                    </mxGeometry>
                </mxCell>
                <mxCell id="430" value="numero&lt;br&gt;di&lt;br&gt;telefono" style="edgeLabel;html=1;align=center;verticalAlign=middle;resizable=0;points=[];" parent="429" vertex="1" connectable="0">
                    <mxGeometry x="0.4791" y="1" relative="1" as="geometry">
                        <mxPoint x="13" y="-36" as="offset"/>
                    </mxGeometry>
                </mxCell>
                <mxCell id="431" value="" style="endArrow=oval;html=1;fillStyle=auto;strokeWidth=1;startSize=6;endSize=6;fillColor=#000000;startArrow=none;startFill=0;endFill=0;" parent="1" source="422" edge="1">
                    <mxGeometry width="50" height="50" relative="1" as="geometry">
                        <mxPoint x="-1991.33" y="-1769.04" as="sourcePoint"/>
                        <mxPoint x="-1887.42" y="-2110" as="targetPoint"/>
                    </mxGeometry>
                </mxCell>
                <mxCell id="432" value="data&lt;br&gt;di&lt;br&gt;nascita" style="edgeLabel;html=1;align=center;verticalAlign=middle;resizable=0;points=[];" parent="431" vertex="1" connectable="0">
                    <mxGeometry x="0.4791" y="1" relative="1" as="geometry">
                        <mxPoint x="32" y="-4" as="offset"/>
                    </mxGeometry>
                </mxCell>
                <mxCell id="433" value="" style="endArrow=oval;html=1;fillStyle=auto;strokeWidth=1;startSize=6;endSize=6;fillColor=#000000;startArrow=none;startFill=0;endFill=0;" parent="1" source="422" edge="1">
                    <mxGeometry width="50" height="50" relative="1" as="geometry">
                        <mxPoint x="-1956.75" y="-2081.22" as="sourcePoint"/>
                        <mxPoint x="-1957.42" y="-2110" as="targetPoint"/>
                    </mxGeometry>
                </mxCell>
                <mxCell id="434" value="LIS" style="edgeLabel;html=1;align=center;verticalAlign=middle;resizable=0;points=[];" parent="433" vertex="1" connectable="0">
                    <mxGeometry x="0.4791" y="1" relative="1" as="geometry">
                        <mxPoint x="-1" y="-18" as="offset"/>
                    </mxGeometry>
                </mxCell>
                <mxCell id="435" style="edgeStyle=elbowEdgeStyle;html=1;exitX=0.5;exitY=1;exitDx=0;exitDy=0;entryX=0.5;entryY=0;entryDx=0;entryDy=0;endArrow=none;endFill=0;elbow=vertical;rounded=0;jumpStyle=arc;" parent="1" target="437" edge="1">
                    <mxGeometry relative="1" as="geometry">
                        <mxPoint x="-1947.6400000000003" y="-2049.6400000000003" as="sourcePoint"/>
                        <mxPoint x="-2007.6200000000001" y="-1931.28" as="targetPoint"/>
                    </mxGeometry>
                </mxCell>
                <mxCell id="437" value="STREAMER" style="whiteSpace=wrap;html=1;" parent="1" vertex="1">
                    <mxGeometry x="-2107.0299999999997" y="-1970.28" width="80" height="40" as="geometry"/>
                </mxCell>
                <mxCell id="439" value="" style="shape=singleArrow;whiteSpace=wrap;html=1;arrowWidth=0.4;arrowSize=0.4;rotation=-90;fillColor=#000000;" parent="1" vertex="1">
                    <mxGeometry x="-1967.33" y="-2044.72" width="38.76" height="29.17" as="geometry"/>
                </mxCell>
                <mxCell id="440" value="(s)" style="text;html=1;align=center;verticalAlign=middle;resizable=0;points=[];autosize=1;strokeColor=none;fillColor=none;" parent="1" vertex="1">
                    <mxGeometry x="-1949.6399999999999" y="-2036.64" width="40" height="30" as="geometry"/>
                </mxCell>
                <mxCell id="441" value="" style="edgeStyle=none;shape=connector;rounded=1;fillStyle=auto;html=1;labelBackgroundColor=default;strokeColor=default;strokeWidth=1;fontFamily=Helvetica;fontSize=11;fontColor=default;endArrow=none;startSize=6;endSize=6;fillColor=#000000;exitX=0.5;exitY=1;exitDx=0;exitDy=0;" parent="1" target="445" edge="1">
                    <mxGeometry relative="1" as="geometry">
                        <mxPoint x="-2068.07" y="-1930.28" as="sourcePoint"/>
                    </mxGeometry>
                </mxCell>
                <mxCell id="442" value="(1, 1)" style="edgeLabel;html=1;align=center;verticalAlign=middle;resizable=0;points=[];fontSize=11;fontFamily=Helvetica;fontColor=default;" parent="441" vertex="1" connectable="0">
                    <mxGeometry x="-0.2675" y="1" relative="1" as="geometry">
                        <mxPoint x="14" y="18" as="offset"/>
                    </mxGeometry>
                </mxCell>
                <mxCell id="443" value="" style="edgeStyle=none;shape=connector;rounded=1;fillStyle=auto;html=1;labelBackgroundColor=default;strokeColor=default;strokeWidth=1;fontFamily=Helvetica;fontSize=11;fontColor=default;endArrow=none;startSize=6;endSize=6;fillColor=#000000;" parent="1" source="445" target="448" edge="1">
                    <mxGeometry relative="1" as="geometry"/>
                </mxCell>
                <mxCell id="444" value="(1, 1)" style="edgeLabel;html=1;align=center;verticalAlign=middle;resizable=0;points=[];fontSize=11;fontFamily=Helvetica;fontColor=default;" parent="443" vertex="1" connectable="0">
                    <mxGeometry x="-0.327" y="1" relative="1" as="geometry">
                        <mxPoint x="15" y="-9" as="offset"/>
                    </mxGeometry>
                </mxCell>
                <mxCell id="445" value="controllo" style="rhombus;whiteSpace=wrap;html=1;" parent="1" vertex="1">
                    <mxGeometry x="-2127.42" y="-1890.28" width="120" height="40.28" as="geometry"/>
                </mxCell>
                <mxCell id="446" value="" style="edgeStyle=none;jumpStyle=arc;html=1;endArrow=none;endFill=0;" parent="1" source="448" target="445" edge="1">
                    <mxGeometry relative="1" as="geometry"/>
                </mxCell>
                <mxCell id="448" value="CANALE" style="rounded=0;whiteSpace=wrap;html=1;" parent="1" vertex="1">
                    <mxGeometry x="-2108.61" y="-1810.28" width="80" height="40" as="geometry"/>
                </mxCell>
                <mxCell id="449" value="" style="endArrow=oval;html=1;fillStyle=auto;strokeWidth=1;startSize=6;endSize=6;fillColor=#000000;startArrow=none;startFill=0;endFill=1;" parent="1" edge="1">
                    <mxGeometry width="50" height="50" relative="1" as="geometry">
                        <mxPoint x="-2058.6099999999997" y="-1820.28" as="sourcePoint"/>
                        <mxPoint x="-2078.6099999999997" y="-1820.28" as="targetPoint"/>
                    </mxGeometry>
                </mxCell>
                <mxCell id="450" value="" style="endArrow=oval;html=1;fillStyle=auto;strokeWidth=1;startSize=6;endSize=6;fillColor=#000000;startArrow=none;startFill=0;endFill=0;" parent="1" source="448" edge="1">
                    <mxGeometry width="50" height="50" relative="1" as="geometry">
                        <mxPoint x="-2018.6100000000001" y="-1800.28" as="sourcePoint"/>
                        <mxPoint x="-2035.42" y="-1747" as="targetPoint"/>
                    </mxGeometry>
                </mxCell>
                <mxCell id="451" value="trailer" style="edgeLabel;html=1;align=center;verticalAlign=middle;resizable=0;points=[];" parent="450" vertex="1" connectable="0">
                    <mxGeometry x="0.4791" y="1" relative="1" as="geometry">
                        <mxPoint x="22" y="14" as="offset"/>
                    </mxGeometry>
                </mxCell>
                <mxCell id="452" value="" style="endArrow=oval;html=1;fillStyle=auto;strokeWidth=1;startSize=6;endSize=6;fillColor=#000000;startArrow=none;startFill=0;endFill=0;" parent="1" source="448" edge="1">
                    <mxGeometry width="50" height="50" relative="1" as="geometry">
                        <mxPoint x="-1779.7440000000001" y="-1610" as="sourcePoint"/>
                        <mxPoint x="-2015.42" y="-1834" as="targetPoint"/>
                    </mxGeometry>
                </mxCell>
                <mxCell id="453" value="descrizione" style="edgeLabel;html=1;align=center;verticalAlign=middle;resizable=0;points=[];" parent="452" vertex="1" connectable="0">
                    <mxGeometry x="0.4791" y="1" relative="1" as="geometry">
                        <mxPoint x="42" y="-11" as="offset"/>
                    </mxGeometry>
                </mxCell>
                <mxCell id="461" value="" style="endArrow=oval;html=1;fillStyle=auto;strokeWidth=1;startSize=6;endSize=6;fillColor=#000000;startArrow=none;startFill=0;endFill=0;exitX=1;exitY=0.75;exitDx=0;exitDy=0;" parent="1" source="422" edge="1">
                    <mxGeometry width="50" height="50" relative="1" as="geometry">
                        <mxPoint x="-1917.7349606299213" y="-2040.6399999999999" as="sourcePoint"/>
                        <mxPoint x="-1881.42" y="-2054" as="targetPoint"/>
                    </mxGeometry>
                </mxCell>
                <mxCell id="462" value="premium" style="edgeLabel;html=1;align=center;verticalAlign=middle;resizable=0;points=[];" parent="461" vertex="1" connectable="0">
                    <mxGeometry x="0.4791" y="1" relative="1" as="geometry">
                        <mxPoint x="38" y="3" as="offset"/>
                    </mxGeometry>
                </mxCell>
                <mxCell id="467" value="" style="edgeStyle=none;shape=connector;rounded=1;fillStyle=auto;html=1;labelBackgroundColor=default;strokeColor=default;strokeWidth=1;fontFamily=Helvetica;fontSize=11;fontColor=default;endArrow=none;startSize=6;endSize=6;fillColor=#000000;entryX=0.5;entryY=0;entryDx=0;entryDy=0;exitX=0.5;exitY=1;exitDx=0;exitDy=0;" parent="1" target="470" edge="1">
                    <mxGeometry relative="1" as="geometry">
                        <mxPoint x="-2067.32" y="-1770.28" as="sourcePoint"/>
                        <mxPoint x="-2065.97" y="-1710.28" as="targetPoint"/>
                    </mxGeometry>
                </mxCell>
                <mxCell id="468" value="(0, N)" style="edgeLabel;html=1;align=center;verticalAlign=middle;resizable=0;points=[];fontSize=11;fontFamily=Helvetica;fontColor=default;" parent="467" vertex="1" connectable="0">
                    <mxGeometry x="-0.3032" relative="1" as="geometry">
                        <mxPoint x="-20" y="16" as="offset"/>
                    </mxGeometry>
                </mxCell>
                <mxCell id="469" value="(1, 1)" style="edgeStyle=none;html=1;endArrow=none;endFill=0;" parent="1" source="470" target="486" edge="1">
                    <mxGeometry x="-0.4777" y="20" relative="1" as="geometry">
                        <mxPoint as="offset"/>
                    </mxGeometry>
                </mxCell>
                <mxCell id="470" value="contenitore" style="rhombus;whiteSpace=wrap;html=1;" parent="1" vertex="1">
                    <mxGeometry x="-2117.32" y="-1730.52" width="100" height="40" as="geometry"/>
                </mxCell>
                <mxCell id="482" value="" style="endArrow=oval;html=1;fillStyle=auto;strokeWidth=1;startSize=6;endSize=6;fillColor=#000000;startArrow=none;startFill=0;endFill=0;" parent="1" source="448" edge="1">
                    <mxGeometry width="50" height="50" relative="1" as="geometry">
                        <mxPoint x="-1757.965" y="-1650" as="sourcePoint"/>
                        <mxPoint x="-1988.42" y="-1783" as="targetPoint"/>
                    </mxGeometry>
                </mxCell>
                <mxCell id="483" value="immagine&lt;br&gt;profilo" style="edgeLabel;html=1;align=center;verticalAlign=middle;resizable=0;points=[];" parent="482" vertex="1" connectable="0">
                    <mxGeometry x="0.4791" y="1" relative="1" as="geometry">
                        <mxPoint x="41" y="5" as="offset"/>
                    </mxGeometry>
                </mxCell>
                <mxCell id="486" value="&lt;font color=&quot;#ff0000&quot;&gt;CONTENUTO&lt;br&gt;MULTIMEDIALE&lt;/font&gt;" style="rounded=0;whiteSpace=wrap;html=1;strokeColor=#FF0000;" parent="1" vertex="1">
                    <mxGeometry x="-2127.61" y="-1650.4299999999998" width="120" height="40" as="geometry"/>
                </mxCell>
                <mxCell id="487" value="" style="endArrow=oval;html=1;fillStyle=auto;strokeWidth=1;startSize=6;endSize=6;fillColor=#000000;startArrow=none;startFill=0;endFill=0;" parent="1" source="486" edge="1">
                    <mxGeometry width="50" height="50" relative="1" as="geometry">
                        <mxPoint x="-2041.07" y="-1673.9933333333333" as="sourcePoint"/>
                        <mxPoint x="-2085.13" y="-1670.6499999999999" as="targetPoint"/>
                    </mxGeometry>
                </mxCell>
                <mxCell id="488" value="titolo" style="edgeLabel;html=1;align=center;verticalAlign=middle;resizable=0;points=[];" parent="487" vertex="1" connectable="0">
                    <mxGeometry x="0.4791" y="1" relative="1" as="geometry">
                        <mxPoint x="-21" y="-10" as="offset"/>
                    </mxGeometry>
                </mxCell>
                <mxCell id="489" value="" style="endArrow=oval;html=1;fillStyle=auto;strokeWidth=1;startSize=6;endSize=6;fillColor=#000000;startArrow=none;startFill=0;endFill=0;exitX=0.117;exitY=1.013;exitDx=0;exitDy=0;exitPerimeter=0;" parent="1" source="486" edge="1">
                    <mxGeometry width="50" height="50" relative="1" as="geometry">
                        <mxPoint x="-2109.9020980926425" y="-1579.4299999999998" as="sourcePoint"/>
                        <mxPoint x="-2147.42" y="-1600" as="targetPoint"/>
                    </mxGeometry>
                </mxCell>
                <mxCell id="490" value="LIS" style="edgeLabel;html=1;align=center;verticalAlign=middle;resizable=0;points=[];" parent="489" vertex="1" connectable="0">
                    <mxGeometry x="0.4791" y="1" relative="1" as="geometry">
                        <mxPoint x="-29" y="2" as="offset"/>
                    </mxGeometry>
                </mxCell>
                <mxCell id="538" style="edgeStyle=none;html=1;exitX=0.5;exitY=0;exitDx=0;exitDy=0;entryX=0;entryY=0.75;entryDx=0;entryDy=0;endArrow=none;endFill=0;jumpStyle=arc;strokeColor=#FF0000;" parent="1" source="542" target="422" edge="1">
                    <mxGeometry relative="1" as="geometry">
                        <Array as="points">
                            <mxPoint x="-2287.42" y="-1950"/>
                            <mxPoint x="-2287.42" y="-1990"/>
                            <mxPoint x="-2097.42" y="-1990"/>
                            <mxPoint x="-2067.42" y="-2050"/>
                            <mxPoint x="-2007.42" y="-2060"/>
                        </Array>
                    </mxGeometry>
                </mxCell>
                <mxCell id="539" value="&lt;font color=&quot;#ff0000&quot;&gt;(0, N)&lt;/font&gt;" style="edgeLabel;html=1;align=center;verticalAlign=middle;resizable=0;points=[];strokeColor=#FF0000;" parent="538" vertex="1" connectable="0">
                    <mxGeometry x="-0.8392" y="-2" relative="1" as="geometry">
                        <mxPoint x="18" y="22" as="offset"/>
                    </mxGeometry>
                </mxCell>
                <mxCell id="540" style="edgeStyle=none;jumpStyle=arc;html=1;exitX=0.5;exitY=1;exitDx=0;exitDy=0;entryX=0;entryY=0.25;entryDx=0;entryDy=0;endArrow=none;endFill=0;strokeColor=#FF0000;" parent="1" source="542" target="486" edge="1">
                    <mxGeometry relative="1" as="geometry">
                        <Array as="points">
                            <mxPoint x="-2287.42" y="-1640"/>
                        </Array>
                    </mxGeometry>
                </mxCell>
                <mxCell id="541" value="&lt;font color=&quot;#ff0000&quot;&gt;(0, N)&lt;/font&gt;" style="edgeLabel;html=1;align=center;verticalAlign=middle;resizable=0;points=[];strokeColor=#FF0000;" parent="540" vertex="1" connectable="0">
                    <mxGeometry x="-0.8996" relative="1" as="geometry">
                        <mxPoint x="20" y="-11" as="offset"/>
                    </mxGeometry>
                </mxCell>
                <mxCell id="542" value="&lt;font color=&quot;#ff0000&quot;&gt;voto&lt;/font&gt;" style="rhombus;whiteSpace=wrap;html=1;strokeColor=#FF0000;" parent="1" vertex="1">
                    <mxGeometry x="-2327.43" y="-1930" width="80" height="40" as="geometry"/>
                </mxCell>
                <mxCell id="543" value="" style="endArrow=oval;html=1;fillStyle=auto;strokeWidth=1;startSize=6;endSize=6;fillColor=#000000;startArrow=none;startFill=0;endFill=0;strokeColor=#FF0000;" parent="1" source="542" edge="1">
                    <mxGeometry width="50" height="50" relative="1" as="geometry">
                        <mxPoint x="-2157.43" y="-1701.8366122312948" as="sourcePoint"/>
                        <mxPoint x="-2227.42" y="-1910" as="targetPoint"/>
                    </mxGeometry>
                </mxCell>
                <mxCell id="544" value="&lt;font color=&quot;#ff0000&quot;&gt;likert&lt;/font&gt;" style="edgeLabel;html=1;align=center;verticalAlign=middle;resizable=0;points=[];strokeColor=#FF0000;" parent="543" vertex="1" connectable="0">
                    <mxGeometry x="0.4791" y="1" relative="1" as="geometry">
                        <mxPoint x="15" y="13" as="offset"/>
                    </mxGeometry>
                </mxCell>
                <mxCell id="546" value="&lt;font style=&quot;font-size: 10px;&quot;&gt;(0,1)&lt;/font&gt;" style="text;html=1;align=center;verticalAlign=middle;resizable=0;points=[];autosize=1;strokeColor=none;fillColor=none;" parent="1" vertex="1">
                    <mxGeometry x="-1938.42" y="-2127" width="40" height="30" as="geometry"/>
                </mxCell>
                <mxCell id="547" value="(0,1)" style="text;html=1;align=center;verticalAlign=middle;resizable=0;points=[];autosize=1;strokeColor=none;fillColor=none;fontSize=10;" parent="1" vertex="1">
                    <mxGeometry x="-1928.5700000000002" y="-2044.72" width="39" height="24" as="geometry"/>
                </mxCell>
                <mxCell id="548" value="&lt;font style=&quot;font-size: 10px;&quot;&gt;(0,1)&lt;/font&gt;" style="text;html=1;align=center;verticalAlign=middle;resizable=0;points=[];autosize=1;strokeColor=none;fillColor=none;fontSize=11;" parent="1" vertex="1">
                    <mxGeometry x="-2032.42" y="-1835.19" width="39" height="25" as="geometry"/>
                </mxCell>
                <mxCell id="549" value="&lt;font style=&quot;font-size: 10px;&quot;&gt;(0,1)&lt;/font&gt;" style="text;html=1;align=center;verticalAlign=middle;resizable=0;points=[];autosize=1;strokeColor=none;fillColor=none;fontSize=11;" parent="1" vertex="1">
                    <mxGeometry x="-2027.6100000000001" y="-1789" width="39" height="25" as="geometry"/>
                </mxCell>
                <mxCell id="550" value="(0,1)" style="text;html=1;align=center;verticalAlign=middle;resizable=0;points=[];autosize=1;strokeColor=none;fillColor=none;fontSize=10;" parent="1" vertex="1">
                    <mxGeometry x="-2048.96" y="-1770.28" width="39" height="24" as="geometry"/>
                </mxCell>
                <mxCell id="554" value="" style="endArrow=none;html=1;fontSize=11;exitX=0.193;exitY=1.011;exitDx=0;exitDy=0;exitPerimeter=0;entryX=0;entryY=0;entryDx=0;entryDy=0;strokeColor=#0000CC;" parent="1" target="555" edge="1">
                    <mxGeometry width="50" height="50" relative="1" as="geometry">
                        <mxPoint x="-2028.2299999999996" y="-1610.4299999999998" as="sourcePoint"/>
                        <mxPoint x="-2011.42" y="-1602" as="targetPoint"/>
                    </mxGeometry>
                </mxCell>
                <mxCell id="555" value="" style="ellipse;whiteSpace=wrap;html=1;aspect=fixed;fontSize=11;strokeColor=#0000CC;" parent="1" vertex="1">
                    <mxGeometry x="-2011.07" y="-1602.2" width="5.92" height="5.92" as="geometry"/>
                </mxCell>
                <mxCell id="556" value="&lt;font color=&quot;#0000cc&quot;&gt;numero &lt;br&gt;likert&lt;/font&gt;" style="text;html=1;align=center;verticalAlign=middle;resizable=0;points=[];autosize=1;strokeColor=none;fillColor=none;fontSize=11;" parent="1" vertex="1">
                    <mxGeometry x="-2015.42" y="-1619.24" width="60" height="40" as="geometry"/>
                </mxCell>
                <mxCell id="557" value="" style="endArrow=none;html=1;" parent="1" edge="1">
                    <mxGeometry width="50" height="50" relative="1" as="geometry">
                        <mxPoint x="-2017.42" y="-1910" as="sourcePoint"/>
                        <mxPoint x="-2037.42" y="-1930" as="targetPoint"/>
                    </mxGeometry>
                </mxCell>
                <mxCell id="558" value="" style="ellipse;whiteSpace=wrap;html=1;aspect=fixed;" parent="1" vertex="1">
                    <mxGeometry x="-2019.42" y="-1913" width="6" height="6" as="geometry"/>
                </mxCell>
                <mxCell id="559" value="&lt;font style=&quot;font-size: 11px;&quot;&gt;affiliate&lt;/font&gt;" style="text;html=1;align=center;verticalAlign=middle;resizable=0;points=[];autosize=1;strokeColor=none;fillColor=none;" parent="1" vertex="1">
                    <mxGeometry x="-2020.3300000000002" y="-1923" width="53" height="26" as="geometry"/>
                </mxCell>
                <mxCell id="564" value="" style="endArrow=oval;html=1;fillStyle=auto;strokeWidth=1;startSize=6;endSize=6;fillColor=#000000;startArrow=none;startFill=0;endFill=0;exitX=-0.003;exitY=0.13;exitDx=0;exitDy=0;exitPerimeter=0;fontSize=11;" parent="1" edge="1">
                    <mxGeometry width="50" height="50" relative="1" as="geometry">
                        <mxPoint x="-1987.4199999999996" y="-2084.8" as="sourcePoint"/>
                        <mxPoint x="-2047.1799999999998" y="-2099.3599999999997" as="targetPoint"/>
                    </mxGeometry>
                </mxCell>
                <mxCell id="565" value="data di&lt;br&gt;registrazione" style="text;html=1;align=center;verticalAlign=middle;resizable=0;points=[];autosize=1;strokeColor=none;fillColor=none;fontSize=11;" parent="1" vertex="1">
                    <mxGeometry x="-2127.38" y="-2120" width="90" height="40" as="geometry"/>
                </mxCell>
                <mxCell id="590" value="&lt;font style=&quot;font-size: 11px;&quot;&gt;URL&lt;/font&gt;" style="text;html=1;align=center;verticalAlign=middle;resizable=0;points=[];autosize=1;strokeColor=none;fillColor=none;" parent="1" vertex="1">
                    <mxGeometry x="-2037.38" y="-1694" width="50" height="30" as="geometry"/>
                </mxCell>
                <mxCell id="591" value="" style="endArrow=oval;html=1;fillStyle=auto;strokeWidth=1;startSize=6;endSize=6;fillColor=#000000;startArrow=none;startFill=0;endFill=0;fontSize=11;exitX=0.288;exitY=0.997;exitDx=0;exitDy=0;exitPerimeter=0;strokeColor=#0000CC;" parent="1" edge="1">
                    <mxGeometry width="50" height="50" relative="1" as="geometry">
                        <mxPoint x="-2098.05" y="-1610.55" as="sourcePoint"/>
                        <mxPoint x="-2121.7299999999996" y="-1585.6799999999998" as="targetPoint"/>
                    </mxGeometry>
                </mxCell>
                <mxCell id="592" value="&lt;font color=&quot;#0000cc&quot;&gt;totale&lt;br&gt;likert&lt;/font&gt;" style="text;html=1;align=center;verticalAlign=middle;resizable=0;points=[];autosize=1;strokeColor=none;fillColor=none;fontSize=11;" parent="1" vertex="1">
                    <mxGeometry x="-2154.34" y="-1589.2" width="45" height="38" as="geometry"/>
                </mxCell>
                <mxCell id="593" value="" style="endArrow=oval;html=1;fillStyle=auto;strokeWidth=1;startSize=6;endSize=6;fillColor=#000000;startArrow=none;startFill=0;endFill=1;exitX=0.763;exitY=-0.005;exitDx=0;exitDy=0;exitPerimeter=0;" parent="1" source="486" edge="1">
                    <mxGeometry width="50" height="50" relative="1" as="geometry">
                        <mxPoint x="-2070" y="-1668" as="sourcePoint"/>
                        <mxPoint x="-2024" y="-1671" as="targetPoint"/>
                    </mxGeometry>
                </mxCell>
            </root>
        </mxGraphModel>
    </diagram>
</mxfile>